<svg width="200" height="161" viewBox="0 0 200 161" fill="none" xmlns="http://www.w3.org/2000/svg">
<path d="M171.735 69.8302C177.95 87.0731 156.41 99.8687 135.266 104.797C113.695 109.828 107.629 127.32 107.629 127.32H107.626C107.083 116.232 116.262 104.254 122.294 97.5422H122.297C124.952 95.5228 131.306 91.8691 145.814 85.8136C147.303 85.1916 148.713 84.5671 150.046 83.9399V83.9373C162.743 77.9754 168.694 71.925 170.606 69.6844C170.673 69.6069 170.768 69.546 170.879 69.509C170.99 69.4719 171.113 69.4604 171.232 69.4759C171.352 69.4913 171.463 69.533 171.552 69.5958C171.641 69.6587 171.705 69.7401 171.735 69.8302V69.8302Z" fill="#9C27B0"/>
<path d="M124.535 58.0339C131.221 49.6701 142.518 41.0408 161.54 37.041C162.174 36.9089 162.851 36.9673 163.431 37.2041C164.012 37.4409 164.453 37.8386 164.666 38.3162C166.805 43.0836 170.379 57.9376 150.045 83.9373V83.9399C148.71 84.5671 147.299 85.1916 145.814 85.8136C131.306 91.8691 124.952 95.5228 122.297 97.5422H122.294C122.633 97.1648 122.961 96.804 123.28 96.4596C128.824 90.4665 129.292 81.3454 115.034 78.5947V78.5921C115.034 78.5921 116.16 68.5212 124.535 58.0339V58.0339Z" fill="#ED30CA" fill-opacity="0.48"/>
<path d="M102.611 77.8219C101.34 77.8635 100.126 77.9364 98.9697 78.0404C97.6304 78.1576 96.368 78.3146 95.1824 78.5115C91.7172 68.9298 87.4654 61.4065 82.9221 55.5044C82.9221 55.5044 85.9566 16.998 106.934 13.0165C110.372 12.3659 130.241 31.0479 124.535 58.0339C116.16 68.5212 115.034 78.5921 115.034 78.5921V78.5947C112.775 78.1732 110.468 77.9196 108.145 77.8375C106.439 77.7646 104.598 77.7568 102.611 77.8219V77.8219Z" fill="#ED30CA"/>
<path d="M99.7733 127.484C99.5732 126.8 94.8535 112.107 58.1877 104.782C28.7608 98.9006 26.9469 75.3263 27.0011 68.9948C27.0014 68.7975 27.0616 68.6029 27.177 68.4264C27.2923 68.25 27.4596 68.0967 27.6655 67.9785C27.8715 67.8603 28.1105 67.7806 28.3636 67.7456C28.6167 67.7106 28.8769 67.7213 29.1236 67.777C33.294 68.7268 43.4353 72.1202 56.2924 83.9633L56.2958 83.9659C68.3731 95.0908 84.2444 101.113 84.2444 101.113C85.4626 102.765 86.8432 104.344 88.3741 105.836C88.6962 106.153 89.0116 106.468 89.3167 106.786C95.1467 112.845 98.7571 119.992 99.7733 127.484Z" fill="#ED30CA"/>
<path d="M82.922 55.5044C87.4654 61.4065 91.7172 68.9298 95.1824 78.5115C78.6465 81.2387 76.9546 91.1535 84.2444 101.113C84.2444 101.113 68.373 95.0908 56.2958 83.9659L56.2924 83.9633C56.0381 83.5756 36.1998 53.5241 44.5542 35.8284C44.8091 35.2714 45.3094 34.8003 45.9687 34.4962C46.6279 34.1922 47.4047 34.0743 48.1651 34.1629C54.2275 34.9019 69.7971 38.4593 82.922 55.5044V55.5044Z" fill="#ED30CA"/>
<path d="M96.8797 31.2574C99.778 24.3045 104.058 17.7584 110.332 14.6226C108.806 13.4542 107.58 12.8944 106.934 13.0165C85.9566 16.998 82.9221 55.5044 82.9221 55.5044C87.4654 61.4065 91.7172 68.9298 95.1824 78.5115C96.3657 78.3163 97.6282 78.1593 98.9697 78.0405C100.126 77.9364 101.34 77.8635 102.611 77.8219C102.763 77.8169 102.909 77.8151 103.059 77.8112C101.641 73.973 100.096 70.4695 98.457 67.2718C92.5459 55.7642 91.9888 43.0437 96.8797 31.2574V31.2574Z" fill="#9C27B0"/>
<path d="M66.3251 104.782C37.97 99.1148 35.2538 77.0227 35.1416 69.7573C33.2298 68.9398 31.2131 68.2762 29.1236 67.777C28.8769 67.7213 28.6167 67.7106 28.3636 67.7456C28.1105 67.7806 27.8715 67.8603 27.6655 67.9785C27.4596 68.0967 27.2923 68.25 27.177 68.4264C27.0616 68.6029 27.0014 68.7975 27.0011 68.9948C26.9469 75.3263 28.7608 98.9006 58.1877 104.782C94.8535 112.107 99.5732 126.8 99.7733 127.484C99.1727 123.166 97.7208 118.943 95.4672 114.96C89.2577 111.282 80.0207 107.518 66.3251 104.782Z" fill="#9C27B0"/>
<path d="M64.4332 83.9659L64.4298 83.9633C64.1755 83.5756 44.3372 53.5241 52.6916 35.8284C52.813 35.5729 52.9856 35.3336 53.2032 35.119C51.5598 34.6975 49.8751 34.3778 48.1651 34.1629C47.4047 34.0743 46.6279 34.1922 45.9687 34.4962C45.3094 34.8003 44.8091 35.2714 44.5542 35.8284C36.1998 53.5241 56.0381 83.5756 56.2924 83.9633L56.2958 83.9659C68.373 95.0908 84.2444 101.113 84.2444 101.113C82.9899 99.4239 81.9751 97.6368 81.2173 95.782C76.0446 92.9278 69.8568 88.9624 64.4332 83.9659Z" fill="#9C27B0"/>
<path d="M100.916 78.1243C100.431 66.4289 102.82 52.5349 102.844 52.396L106.205 52.7405C106.181 52.8771 103.829 66.5648 104.304 78.0415L100.916 78.1243Z" fill="#D8A43D"/>
<path d="M109.839 78.1766L106.454 78.0186C107.146 69.2962 109.705 58.9501 109.73 58.8468L113.061 59.3353C113.034 59.437 110.517 69.6238 109.839 78.1766Z" fill="#D8A43D"/>
<path d="M97.3124 78.5679C93.5549 64.8538 94.3965 55.7555 94.4324 55.3751L97.8135 55.571C97.8043 55.6611 96.9808 64.7106 100.63 78.0326L97.3124 78.5679Z" fill="#D8A43D"/>
<path d="M111.234 60.6843C110.487 60.5467 109.836 60.1962 109.414 59.7038C108.992 59.2114 108.83 58.6142 108.96 58.0333C109.091 57.4525 109.505 56.9316 110.118 56.5764C110.731 56.2213 111.497 56.0585 112.261 56.1211C113.024 56.1838 113.728 56.4671 114.23 56.9137C114.731 57.3602 114.992 57.9365 114.96 58.5254C114.928 59.1144 114.605 59.6718 114.056 60.0846C113.508 60.4973 112.776 60.7345 112.008 60.7478C111.747 60.7554 111.487 60.734 111.234 60.6843Z" fill="#FCE55E"/>
<path d="M108.026 51.6972C108.041 52.1596 107.878 52.615 107.556 53.006C107.234 53.3971 106.768 53.7062 106.218 53.8946C105.668 54.0829 105.057 54.1419 104.463 54.0641C103.869 53.9864 103.318 53.7755 102.88 53.4578C102.442 53.1402 102.136 52.7302 102.002 52.2794C101.867 51.8286 101.909 51.3573 102.123 50.9248C102.336 50.4924 102.712 50.1182 103.202 49.8494C103.693 49.5806 104.276 49.4293 104.878 49.4145C105.281 49.404 105.682 49.455 106.059 49.5643C106.435 49.6737 106.78 49.8393 107.073 50.0516C107.366 50.2639 107.601 50.5187 107.764 50.8011C107.928 51.0836 108.017 51.3882 108.026 51.6972V51.6972Z" fill="#FCE55E"/>
<path d="M99.2647 54.6176C99.2797 55.08 99.116 55.5354 98.7943 55.9265C98.4725 56.3176 98.007 56.6268 97.4566 56.8151C96.9062 57.0035 96.2954 57.0625 95.7013 56.9847C95.1072 56.907 94.5565 56.696 94.1184 56.3784C93.6804 56.0607 93.3747 55.6506 93.2399 55.1998C93.1051 54.7489 93.1473 54.2776 93.3611 53.8451C93.5748 53.4127 93.9507 53.0385 94.4412 52.7697C94.9317 52.501 95.5149 52.3498 96.1172 52.3351C96.5195 52.3253 96.9203 52.3766 97.2966 52.4862C97.673 52.5958 98.0173 52.7614 98.3098 52.9736C98.6024 53.1857 98.8374 53.4402 99.0013 53.7224C99.1651 54.0045 99.2547 54.3087 99.2647 54.6176V54.6176Z" fill="#FCE55E"/>
<path d="M95.1824 78.5115C96.3657 78.3163 97.6282 78.1593 98.9697 78.0404C100.126 77.9363 101.34 77.8635 102.611 77.8218C104.598 77.7568 106.439 77.7646 108.145 77.8375C110.468 77.9196 112.775 78.1732 115.034 78.5947C129.292 81.3454 128.824 90.4665 123.28 96.4596C122.961 96.8031 122.633 97.164 122.294 97.5422C116.262 104.254 107.083 116.232 107.626 127.32C107.626 127.346 107.629 127.37 107.629 127.396C107.663 128.039 107.402 132.041 107.016 135.427C106.936 136.136 106.495 136.792 105.79 137.253C105.084 137.714 104.17 137.944 103.245 137.891C102.321 137.839 101.46 137.509 100.85 136.973C100.24 136.437 99.9302 135.739 99.9869 135.028C100.199 132.519 100.128 130 99.7767 127.5C99.7767 127.495 99.7733 127.492 99.7733 127.484C98.7571 119.992 95.1466 112.845 89.3167 106.786C89.0115 106.468 88.6962 106.153 88.3741 105.836C86.8432 104.344 85.4626 102.765 84.2444 101.113C76.9546 91.1535 78.6465 81.2387 95.1824 78.5115V78.5115Z" fill="#ED30CA"/>
<path d="M107.626 127.32C107.6 126.802 107.603 126.282 107.619 125.759C106.322 118.888 102.83 112.37 97.4541 106.786C97.149 106.468 96.8336 106.153 96.5115 105.836C94.9806 104.344 93.6 102.765 92.3818 101.113C85.092 91.1535 86.7839 81.2387 103.32 78.5115C104.503 78.3163 105.766 78.1593 107.107 78.0404C107.783 77.9795 108.48 77.9309 109.194 77.8913C108.85 77.8708 108.501 77.8523 108.143 77.8375C106.438 77.7646 104.597 77.7568 102.61 77.8218C101.338 77.8635 100.125 77.9363 98.9684 78.0404C97.6291 78.1575 96.3666 78.3145 95.1811 78.5115C78.6452 81.2387 76.9533 91.1535 84.243 101.113C85.4612 102.765 86.8418 104.344 88.3728 105.836C88.6949 106.153 89.0102 106.468 89.3154 106.786C95.1453 112.845 98.7558 119.992 99.7719 127.484C99.7719 127.492 99.7753 127.495 99.7753 127.5C100.127 130 100.197 132.519 99.9855 135.028C99.9288 135.739 100.239 136.437 100.849 136.973C101.459 137.509 102.319 137.839 103.244 137.891C104.168 137.944 105.082 137.714 105.788 137.253C106.494 136.792 106.934 136.136 107.014 135.427C107.401 132.041 107.662 128.039 107.628 127.396C107.629 127.37 107.626 127.346 107.626 127.32V127.32Z" fill="#9C27B0"/>
</svg>
